M48
; DRILL file {KiCad 9.0.4-9.0.4-0~ubuntu24.04.1} date 2025-11-17T16:54:03-0300
; FORMAT={-:-/ absolute / metric / decimal}
; #@! TF.CreationDate,2025-11-17T16:54:03-03:00
; #@! TF.GenerationSoftware,Kicad,Pcbnew,9.0.4-9.0.4-0~ubuntu24.04.1
; #@! TF.FileFunction,MixedPlating,1,2
FMAT,2
METRIC
; #@! TA.AperFunction,Plated,PTH,ViaDrill
T1C0.400
; #@! TA.AperFunction,Plated,PTH,ComponentDrill
T2C0.600
; #@! TA.AperFunction,Plated,PTH,ComponentDrill
T3C0.800
; #@! TA.AperFunction,Plated,PTH,ComponentDrill
T4C0.813
; #@! TA.AperFunction,Plated,PTH,ComponentDrill
T5C1.000
; #@! TA.AperFunction,NonPlated,NPTH,ComponentDrill
T6C1.500
%
G90
G05
T1
X138.81Y-87.92
T2
X157.6Y-131.21
X160.55Y-77.81
X161.2Y-131.21
X164.15Y-77.81
X164.8Y-131.21
T3
X139.591Y-121.713
X139.591Y-129.333
X140.3Y-91.8
X140.3Y-99.42
X140.551Y-111.193
X140.621Y-107.793
X140.621Y-115.433
X140.631Y-104.103
X142.36Y-80.32
X142.36Y-82.86
X142.36Y-85.4
X142.36Y-87.94
X142.5Y-76.55
X143.051Y-111.193
X143.121Y-107.793
X143.121Y-115.433
X143.131Y-104.103
X143.221Y-121.713
X143.221Y-129.333
X145.0Y-93.08
X145.0Y-100.7
X147.48Y-129.287
X147.48Y-131.787
X149.74Y-93.065
X149.74Y-100.685
X149.841Y-125.623
X149.98Y-80.32
X149.98Y-82.86
X149.98Y-85.4
X149.98Y-87.94
X150.12Y-76.55
X152.341Y-125.623
X154.81Y-92.09
X154.81Y-99.71
X155.41Y-80.82
X155.41Y-88.44
X159.58Y-112.89
X159.58Y-120.51
X159.64Y-80.84
X159.64Y-88.46
X159.92Y-102.64
X159.92Y-110.26
X160.09Y-92.17
X160.09Y-99.79
X163.57Y-112.89
X163.57Y-120.51
X163.91Y-102.63
X163.91Y-110.25
X164.1Y-92.23
X164.1Y-99.85
T4
X147.95Y-105.68
X147.95Y-108.22
X147.95Y-110.76
X147.95Y-113.3
X147.95Y-115.84
X147.95Y-118.38
X147.95Y-120.92
X155.57Y-105.68
X155.57Y-108.22
X155.57Y-110.76
X155.57Y-113.3
X155.57Y-115.84
X155.57Y-118.38
X155.57Y-120.92
T5
X152.4Y-129.317
X152.4Y-139.317
T6
X157.6Y-137.21
X160.55Y-71.81
X161.2Y-137.21
X164.15Y-71.81
X164.8Y-137.21
M30
